<?xml version="1.0" standalone="no"?>
<!DOCTYPE svg PUBLIC "-//W3C//DTD SVG 20010904//EN"
 "http://www.w3.org/TR/2001/REC-SVG-20010904/DTD/svg10.dtd">
<svg version="1.0" xmlns="http://www.w3.org/2000/svg"
 width="4050.000000pt" height="1950.000000pt" viewBox="0 0 4050.000000 1950.000000"
 preserveAspectRatio="xMidYMid meet">
<metadata>
Created by potrace 1.15, written by Peter Selinger 2001-2017
</metadata>
<g transform="translate(0.000000,1950.000000) scale(0.100000,-0.100000)"
fill="#000000" stroke="none">
<path d="M0 9750 l0 -9750 20250 0 20250 0 0 9750 0 9750 -20250 0 -20250 0 0
-9750z m37970 7785 c0 -13 -1976 -15 -17720 -15 -15744 0 -17720 2 -17720 15
0 13 1976 15 17720 15 15744 0 17720 -2 17720 -15z m-30558 -1110 c765 -101
1508 -672 2071 -1593 159 -260 347 -616 332 -630 -3 -3 -72 -10 -153 -14 -81
-4 -185 -12 -232 -17 -47 -5 -88 -7 -92 -5 -3 2 -33 55 -66 117 -422 801 -972
1367 -1547 1591 -190 75 -319 103 -506 113 -288 15 -602 -62 -875 -213 l-105
-59 7 -50 c12 -82 7 -216 -11 -285 -30 -120 -81 -207 -175 -300 -127 -128
-228 -178 -403 -200 -71 -9 -159 -3 -241 15 -23 5 -23 6 -197 -265 -53 -82
-135 -222 -183 -310 l-88 -161 -32 6 c-36 6 -219 21 -358 30 l-97 7 76 151
c133 268 298 545 449 755 l38 53 -37 69 c-70 128 -95 303 -66 456 34 175 173
362 339 456 99 56 173 73 325 73 122 0 149 -3 205 -24 63 -23 119 -50 170 -83
24 -16 27 -16 80 18 235 151 617 283 885 307 112 10 384 6 487 -8z m-2744
-2682 c45 -3 82 -10 82 -15 0 -5 -29 -82 -64 -171 -121 -307 -242 -685 -331
-1037 -21 -80 -41 -150 -45 -155 -5 -6 -77 -54 -162 -108 -84 -54 -202 -132
-262 -173 l-108 -75 6 48 c10 65 88 424 127 576 76 305 204 714 311 995 l52
135 155 -7 c86 -3 193 -9 239 -13z m5410 -145 c163 -441 296 -907 392 -1376
22 -107 40 -196 40 -198 0 -2 -66 40 -147 94 -82 54 -201 131 -267 172 -65 40
-122 83 -127 94 -5 12 -23 77 -40 146 -79 322 -199 701 -316 999 -36 91 -67
174 -70 183 -4 13 4 18 39 23 45 6 282 21 379 24 l57 1 60 -162z m-1818 -1862
c0 -12 -5 -38 -12 -57 -6 -18 -390 -506 -852 -1084 -463 -577 -842 -1053 -844
-1057 -2 -5 535 -8 1193 -8 l1196 0 -3 -362 c-3 -358 -3 -364 -27 -411 -12
-26 -38 -59 -57 -73 -68 -52 -75 -53 -571 -54 l-463 0 0 -330 0 -330 350 0
c327 0 353 -1 404 -20 162 -61 184 -292 38 -395 l-44 -30 -1401 -3 c-991 -2
-1413 0 -1440 8 -49 14 -106 65 -128 115 -11 24 -19 64 -19 100 0 81 43 158
110 195 l45 25 368 3 367 3 0 329 0 329 -477 3 c-444 3 -480 4 -513 22 -49 26
-79 55 -103 101 -21 39 -22 53 -25 408 l-3 367 310 0 311 0 892 1115 892 1115
253 0 253 0 0 -24z m-4095 -152 c-187 -1191 -187 -2515 0 -3673 14 -85 23
-156 21 -158 -4 -4 -324 216 -462 318 l-51 37 -21 184 c-54 454 -73 763 -79
1293 -6 469 3 772 33 1150 24 309 61 634 73 652 5 8 151 113 411 296 52 36 95
65 97 63 2 -1 -8 -74 -22 -162z m6175 3 c252 -177 269 -190 274 -207 7 -23 44
-354 61 -550 55 -645 59 -1423 10 -2050 -22 -280 -65 -653 -77 -668 -11 -13
-234 -174 -410 -296 -54 -37 -98 -62 -98 -57 0 6 11 79 25 163 40 242 80 585
105 903 44 564 42 1338 -5 1910 -25 302 -81 756 -115 937 -6 28 -10 57 -10 66
0 18 -8 23 240 -151z m135 -4295 c-85 -410 -223 -909 -343 -1242 -98 -272
-114 -310 -126 -311 -40 -4 -466 19 -473 25 -1 1 22 62 52 135 122 298 252
699 344 1065 23 87 46 165 52 172 6 7 57 42 112 76 113 69 348 225 387 257 14
11 27 16 28 10 2 -5 -13 -89 -33 -187z m-6303 -71 l147 -93 16 -72 c63 -279
238 -834 354 -1125 34 -85 59 -156 56 -159 -6 -6 -148 -18 -331 -27 l-142 -7
-40 104 c-103 266 -221 641 -306 968 -43 167 -126 536 -141 628 l-7 42 124
-82 c67 -46 189 -125 270 -177z m810 -1941 c165 -303 254 -450 386 -635 454
-636 971 -1013 1532 -1116 107 -20 390 -17 505 5 701 133 1319 684 1845 1642
45 82 83 150 85 152 8 8 485 -33 485 -41 0 -17 -192 -380 -272 -515 -223 -376
-411 -625 -672 -891 -437 -448 -886 -704 -1396 -798 -140 -25 -536 -25 -675 0
-381 71 -748 243 -1075 506 -381 305 -725 722 -1020 1236 -99 174 -247 462
-239 469 2 2 78 10 169 16 91 7 194 16 230 20 36 4 69 7 74 6 5 -1 22 -26 38
-56z m32988 -3315 c0 -13 -1976 -15 -17720 -15 -15744 0 -17720 2 -17720 15 0
13 1976 15 17720 15 15744 0 17720 -2 17720 -15z"/>
</g>
</svg>
